<svg xmlns="http://www.w3.org/2000/svg">
<style> :root svg:not(:target) { display: none } </style>

<svg id="vkontakte" width="25" height="14" viewBox="0 0 25 14" fill="none">
<path fill-rule="evenodd" clip-rule="evenodd" d="M23.95 0.948C24.116 0.402 23.95 0 23.155 0H20.53C19.862 0 19.554 0.347 19.387 0.73C19.387 0.73 18.052 3.926 16.161 6.002C15.549 6.604 15.271 6.795 14.937 6.795C14.77 6.795 14.519 6.604 14.519 6.057V0.948C14.519 0.292 14.335 0 13.779 0H9.651C9.234 0 8.983 0.304 8.983 0.593C8.983 1.214 9.929 1.358 10.026 3.106V6.904C10.026 7.737 9.873 7.888 9.539 7.888C8.649 7.888 6.484 4.677 5.199 1.003C4.95 0.288 4.698 0 4.027 0H1.4C0.65 0 0.5 0.347 0.5 0.73C0.5 1.412 1.39 4.8 4.645 9.281C6.815 12.341 9.87 14 12.653 14C14.322 14 14.528 13.632 14.528 12.997V10.684C14.528 9.947 14.686 9.8 15.215 9.8C15.605 9.8 16.272 9.992 17.83 11.467C19.61 13.216 19.903 14 20.905 14H23.53C24.28 14 24.656 13.632 24.44 12.904C24.202 12.18 23.352 11.129 22.225 9.882C21.613 9.172 20.695 8.407 20.416 8.024C20.027 7.533 20.138 7.314 20.416 6.877C20.416 6.877 23.616 2.451 23.949 0.948H23.95Z" fill="white"/>
</svg>

<svg  id="telegram" width="21" height="18" viewBox="0 0 21 18" fill="none">
<path d="M20.9393 1.62225L17.7705 16.566C17.5313 17.6205 16.908 17.883 16.0223 17.3865L11.1938 13.8285L8.86427 16.0695C8.60627 16.3275 8.39102 16.5428 7.89377 16.5428L8.24102 11.6258L17.1893 3.54C17.5785 3.1935 17.1045 3.00075 16.5848 3.348L5.52227 10.314L0.759771 8.823C-0.275979 8.49975 -0.294729 7.78725 0.975771 7.29L19.6035 0.113253C20.466 -0.209997 21.2205 0.305253 20.9393 1.623V1.62225Z" fill="white"/>
</svg>

<svg id="youtube" width="21" height="14" viewBox="0 0 21 14" fill="none">
<path d="M17.6813 0H3.31331C1.80618 0 0.5 1.3 0.5 2.8V11.1C0.5 12.7 1.80618 14 3.31331 14H17.6813C19.2889 14 20.4946 12.7 20.4946 11.2V2.8C20.595 1.3 19.2889 0 17.6813 0ZM7.53326 10.4V3.6L14.3656 7L7.53326 10.4Z" fill="white"/>
</svg>

<svg id="footer-logo" width="28" height="36" viewBox="0 0 28 36" fill="none">
<g clip-path="url(#clip0_68522_1035)">
<path d="M14.15 0.949951H14.05L0.550049 2.34995V27.05L14.05 35.0499L27.45 27.05V2.34995L14.15 0.949951ZM25.55 13.05L14.05 6.24995V6.14995H13.95L13.85 6.04995V6.14995L2.45005 13.05V4.04995L13.95 2.84995L25.55 4.04995V13.05ZM13.95 7.74995L25.45 14.45L20.95 17.05L13.85 12.85V14.25L19.75 17.75L18.85 18.25L13.85 15.25V16.65L17.65 18.95L16.85 19.45L13.85 17.65V19.05L15.75 20.15L13.95 21.25L2.55005 14.55L13.95 7.74995ZM2.45005 16.05L13.85 22.85V23.85L5.95005 19.15V20.55L13.95 25.35V26.45L5.95005 21.75V23.15L13.95 27.95L22.05 23.05V17.85L25.45 15.85V25.85L13.95 32.75L2.45005 25.95V16.05Z" fill="black"/>
</g>
<defs>
<clipPath id="clip0_68522_1035">
<rect width="28" height="35" fill="white" transform="translate(0 0.5)"/>
</clipPath>
</defs>
</svg>

<svg id="toggle" width="23" height="22" viewBox="0 0 23 22" fill="none">
<path d="M22.9 0H0V4H22.9V0Z" fill="#81B3D2"/>
<path d="M22.9 9H0V13H22.9V9Z" fill="#81B3D2"/>
<path d="M22.9 18H0V22H22.9V18Z" fill="#81B3D2"/>
</svg>

<svg id="opened" width="23" height="23" viewBox="0 0 23 23" fill="none">
<path d="M22.2 2.8L19.4 0L11.1 8.3L2.8 0L0 2.8L8.3 11.1L0 19.4L2.8 22.2L11.1 13.9L19.4 22.2L22.2 19.4L13.9 11.1L22.2 2.8Z" fill="white"/>
</svg>

<svg id="like" width="23" height="21" viewBox="0 0 23 21" fill="none" xmlns="http://www.w3.org/2000/svg">
<path opacity="0.3" d="M12.9636 3.78L12.3364 6.825L11.7091 9.45H14.3227H20.8045V11.55C20.8045 11.55 20.8045 11.55 20.8045 11.655L17.7727 18.9H8.36364V8.4L12.9636 3.78ZM2.09091 10.5V18.9V10.5ZM13.8 0L6.9 6.93C6.48182 7.245 6.27273 7.77 6.27273 8.4V18.9C6.27273 20.055 7.21364 21 8.36364 21H17.7727C18.6091 21 19.3409 20.475 19.6545 19.74L22.7909 12.285C22.8955 12.075 22.8955 11.76 22.8955 11.55V9.45H23C23 8.295 22.0591 7.35 20.9091 7.35H14.3227L15.3682 2.52V2.205C15.3682 1.785 15.1591 1.365 14.95 1.05L13.8 0ZM4.18182 8.4H0V21H4.18182V8.4Z" fill="black"/>
</svg>

<svg id="housing" viewBox="0 0 40 38" fill="none" xmlns="http://www.w3.org/2000/svg">
<path d="M15.9015 33.8041H24.2549V21.646H15.9015V33.8041ZM22.7408 32.3289H17.4155V23.1212H22.6886V32.3289H22.7408Z" fill="#81B3D2"/>
<path d="M38.4036 20.6278L39.5 19.5595L34.3313 14.5233V0.7882H27.1265V7.50314L19.9739 0.584717L0.5 19.6104L1.59639 20.6787L5.66867 16.7108V35.9399H3.63253V37.4152H36.994V35.9399H34.3313V16.6599L38.4036 20.6278ZM28.6406 2.31432H32.7651V13.0481L28.6406 9.02927V2.31432ZM32.8173 35.889H7.23494V15.1846L19.9739 2.72129L32.7651 15.1846V35.889H32.8173Z" fill="#81B3D2"/>
<path d="M16.0582 14.4216C16.0582 16.609 17.8855 18.3895 20.0783 18.3895C22.3233 18.3895 24.1506 16.609 24.1506 14.4216C24.1506 12.2341 22.3233 10.5045 20.0783 10.5045C17.8333 10.5045 16.0582 12.2341 16.0582 14.4216ZM20.0783 11.878C21.4879 11.878 22.6888 12.9972 22.6888 14.4216C22.6888 15.7951 21.5402 16.9651 20.0783 16.9651C18.6687 16.9651 17.4679 15.846 17.4679 14.4216C17.4679 13.0481 18.6687 11.878 20.0783 11.878Z" fill="#81B3D2"/>
<path d="M10.8895 21.646H9.32324V23.63H10.8895V21.646Z" fill="#81B3D2"/>
<path d="M13.9698 21.646H12.4036V23.63H13.9698V21.646Z" fill="#81B3D2"/>
<path d="M10.8895 24.6975H9.32324V26.6815H10.8895V24.6975Z" fill="#81B3D2"/>
<path d="M13.9698 24.6975H12.4036V26.6815H13.9698V24.6975Z" fill="#81B3D2"/>
<path d="M27.5443 21.646H25.978V23.63H27.5443V21.646Z" fill="#81B3D2"/>
<path d="M30.6769 21.646H29.1106V23.63H30.6769V21.646Z" fill="#81B3D2"/>
<path d="M27.5443 24.6975H25.978V26.6815H27.5443V24.6975Z" fill="#81B3D2"/>
<path d="M30.6769 24.6975H29.1106V26.6815H30.6769V24.6975Z" fill="#81B3D2"/>
</svg>

<svg id="food" viewBox="0 0 40 40" fill="none" xmlns="http://www.w3.org/2000/svg">
<path d="M37.7428 25.8505H2.25722C0.997375 25.8505 0 26.8635 0 28.0285V29.8014C0 30.9664 0.997375 31.9288 2.25722 31.9288H2.78215V32.4354C2.78215 35.2213 5.14436 37.45 7.979 37.45H32.021C34.9081 37.45 37.2178 35.1706 37.2178 32.4354V31.9288H37.7428C38.9501 31.9288 40 30.9664 40 29.7508V27.9779C40 26.8635 39.0026 25.8505 37.7428 25.8505ZM35.6955 32.4354C35.6955 34.3602 34.0682 35.9304 32.0735 35.9304H7.92651C5.93176 35.9304 4.30446 34.3602 4.30446 32.4354V31.9288H35.6955V32.4354ZM38.4252 29.7508C38.4252 30.1053 38.1102 30.4092 37.7428 30.4092H2.25722C1.88976 30.4092 1.5748 30.1053 1.5748 29.7508V27.9779C1.5748 27.674 1.88976 27.3701 2.25722 27.3701H37.7953C38.1627 27.3701 38.4777 27.674 38.4777 28.0285V29.7508H38.4252Z" fill="#81B3D2"/>
<path d="M8.50395 21.7473L11.3386 23.7735L14.2257 21.7473L17.1129 23.7735L20 21.7473L22.8347 23.7735L25.7218 21.7473L28.6089 23.7735L31.4961 21.7473L34.3832 23.7735L37.6903 21.3928L36.7979 20.1771L34.3832 21.8486L31.4961 19.8225L28.6089 21.8486L25.7218 19.8225L22.8347 21.8486L20 19.8225L17.1129 21.8486L14.2257 19.8225L11.3386 21.8486L8.50395 19.8225L5.61682 21.8486L3.20212 20.1771L2.25723 21.3928L5.61682 23.7735L8.50395 21.7473Z" fill="#81B3D2"/>
<path d="M37.2179 18.3032C37.2179 17.9993 37.2704 16.9862 37.2179 16.7836C36.8504 8.88169 29.2913 2.55005 20 2.55005C10.7087 2.55005 3.09712 8.88169 2.72967 16.7836C2.72967 16.9862 2.72967 17.9993 2.72967 18.3032H37.2179ZM20 4.06964C28.399 4.06964 35.3281 9.74279 35.6431 16.7836H4.30447C4.67193 9.74279 11.6011 4.06964 20 4.06964Z" fill="#81B3D2"/>
<path d="M20 11.1611C20.5798 11.1611 21.0499 10.7076 21.0499 10.1481C21.0499 9.58857 20.5798 9.13501 20 9.13501C19.4202 9.13501 18.9501 9.58857 18.9501 10.1481C18.9501 10.7076 19.4202 11.1611 20 11.1611Z" fill="#81B3D2"/>
<path d="M15.8005 8.67871C16.3803 8.67871 16.8504 8.22515 16.8504 7.66565C16.8504 7.10615 16.3803 6.65259 15.8005 6.65259C15.2207 6.65259 14.7506 7.10615 14.7506 7.66565C14.7506 8.22515 15.2207 8.67871 15.8005 8.67871Z" fill="#81B3D2"/>
<path d="M24.1995 8.67871C24.7793 8.67871 25.2493 8.22515 25.2493 7.66565C25.2493 7.10615 24.7793 6.65259 24.1995 6.65259C23.6196 6.65259 23.1496 7.10615 23.1496 7.66565C23.1496 8.22515 23.6196 8.67871 24.1995 8.67871Z" fill="#81B3D2"/>
</svg>

<svg id="souvenirs" viewBox="0 0 40 40" fill="none" xmlns="http://www.w3.org/2000/svg">
<path d="M34.5778 12.2058H34.527H22.1841C29.0921 8.76156 29.6508 6.58358 29.3968 5.36796C28.8381 3.39259 26.5524 1.87307 24.419 2.68348C21.6254 3.74714 20.8635 7.9005 20.1016 10.8889C19.1365 7.84985 18.2222 4.0004 16.0381 2.02502C15.4286 1.46786 14.5143 0.910706 13.1429 1.01201C11.1111 1.21461 8.21587 3.69649 9.43492 6.48228C10.5524 9.16676 14.2603 10.8889 16.7492 12.2565H5.42222C4.60952 12.2565 4 12.9149 4 13.6747V19.3475C4 20.158 4.66032 20.7658 5.42222 20.7658H5.5746V39H34.527V20.7658H34.5778C35.3905 20.7658 36 20.1073 36 19.3475V13.6747C36 12.8643 35.3397 12.2058 34.5778 12.2058ZM25.2317 3.94975C26.2984 3.79779 27.7206 4.6082 27.873 5.57057C28.0762 6.93813 26.1968 8.2044 25.3333 8.76156C24.0635 9.62262 22.8444 10.0785 21.6762 10.7876C22.0825 8.91351 22.946 4.25365 25.2317 3.94975ZM13.7524 8.91351C12.6349 8.15375 10.5016 6.68488 10.5524 5.01341C10.6032 3.18999 13.4476 1.72112 14.9714 3.08868C16.9016 4.76016 17.8159 8.66026 18.527 11.3954C16.9016 10.585 15.3778 9.97717 13.7524 8.91351ZM16.7492 37.4805H7.04762V20.7658H16.7492V37.4805ZM16.7492 19.2462H5.52381V13.7253H16.7492V19.2462ZM21.8286 37.4805H18.2222V13.7253H21.8286V37.4805ZM33.0032 37.4805H23.3524V20.7658H33.054V37.4805H33.0032ZM34.4762 19.2462H23.3524V13.7253H34.4762V19.2462Z" fill="#81B3D2"/>
</svg>

<svg id="phone" width="18" height="18" viewBox="0 0 18 18" fill="none" xmlns="http://www.w3.org/2000/svg">
<path d="M3.6 7.8C5 10.6 7.4 12.9 10.2 14.4L12.4 12.2C12.7 11.9 13.1 11.8 13.4 12C14.5 12.4 15.7 12.6 17 12.6C17.6 12.6 18 13 18 13.6V17C18 17.6 17.6 18 17 18C7.6 18 0 10.4 0 1C0 0.4 0.4 0 1 0H4.5C5.1 0 5.5 0.4 5.5 1C5.5 2.2 5.7 3.4 6.1 4.6C6.2 4.9 6.1 5.3 5.9 5.6L3.6 7.8Z" fill="#010101"/>
</svg>

<svg id="mail" width="16" height="12" viewBox="0 0 16 12" fill="none" xmlns="http://www.w3.org/2000/svg">
<path d="M8 8C7.7 8 7.5 7.9 7 7.7L0 4V11C0 11.5 0.5 12 1 12H15C15.5 12 16 11.5 16 11V4L9 7.7C8.5 7.9 8.3 8 8 8ZM15 0H1C0.5 0 0 0.5 0 1V1.8L8 6L16 1.8V1C16 0.5 15.5 0 15 0Z" fill="black"/>
</svg>

</svg>
