<svg xmlns="http://www.w3.org/2000/svg">
<style> :root svg:not(:target) { display: none } </style>

<svg id="vkontakte" width="25" height="14" viewBox="0 0 25 14" fill="none">
<path fill-rule="evenodd" clip-rule="evenodd" d="M23.95 0.948C24.116 0.402 23.95 0 23.155 0H20.53C19.862 0 19.554 0.347 19.387 0.73C19.387 0.73 18.052 3.926 16.161 6.002C15.549 6.604 15.271 6.795 14.937 6.795C14.77 6.795 14.519 6.604 14.519 6.057V0.948C14.519 0.292 14.335 0 13.779 0H9.651C9.234 0 8.983 0.304 8.983 0.593C8.983 1.214 9.929 1.358 10.026 3.106V6.904C10.026 7.737 9.873 7.888 9.539 7.888C8.649 7.888 6.484 4.677 5.199 1.003C4.95 0.288 4.698 0 4.027 0H1.4C0.65 0 0.5 0.347 0.5 0.73C0.5 1.412 1.39 4.8 4.645 9.281C6.815 12.341 9.87 14 12.653 14C14.322 14 14.528 13.632 14.528 12.997V10.684C14.528 9.947 14.686 9.8 15.215 9.8C15.605 9.8 16.272 9.992 17.83 11.467C19.61 13.216 19.903 14 20.905 14H23.53C24.28 14 24.656 13.632 24.44 12.904C24.202 12.18 23.352 11.129 22.225 9.882C21.613 9.172 20.695 8.407 20.416 8.024C20.027 7.533 20.138 7.314 20.416 6.877C20.416 6.877 23.616 2.451 23.949 0.948H23.95Z" fill="white"/>
</svg>

<svg  id="telegram" width="21" height="18" viewBox="0 0 21 18" fill="none">
<path d="M20.9393 1.62225L17.7705 16.566C17.5313 17.6205 16.908 17.883 16.0223 17.3865L11.1938 13.8285L8.86427 16.0695C8.60627 16.3275 8.39102 16.5428 7.89377 16.5428L8.24102 11.6258L17.1893 3.54C17.5785 3.1935 17.1045 3.00075 16.5848 3.348L5.52227 10.314L0.759771 8.823C-0.275979 8.49975 -0.294729 7.78725 0.975771 7.29L19.6035 0.113253C20.466 -0.209997 21.2205 0.305253 20.9393 1.623V1.62225Z" fill="white"/>
</svg>

<svg id="youtube" width="21" height="14" viewBox="0 0 21 14" fill="none">
<path d="M17.6813 0H3.31331C1.80618 0 0.5 1.3 0.5 2.8V11.1C0.5 12.7 1.80618 14 3.31331 14H17.6813C19.2889 14 20.4946 12.7 20.4946 11.2V2.8C20.595 1.3 19.2889 0 17.6813 0ZM7.53326 10.4V3.6L14.3656 7L7.53326 10.4Z" fill="white"/>
</svg>

<svg id="footer-logo" width="28" height="36" viewBox="0 0 28 36" fill="none">
<g clip-path="url(#clip0_68522_1035)">
<path d="M14.15 0.949951H14.05L0.550049 2.34995V27.05L14.05 35.0499L27.45 27.05V2.34995L14.15 0.949951ZM25.55 13.05L14.05 6.24995V6.14995H13.95L13.85 6.04995V6.14995L2.45005 13.05V4.04995L13.95 2.84995L25.55 4.04995V13.05ZM13.95 7.74995L25.45 14.45L20.95 17.05L13.85 12.85V14.25L19.75 17.75L18.85 18.25L13.85 15.25V16.65L17.65 18.95L16.85 19.45L13.85 17.65V19.05L15.75 20.15L13.95 21.25L2.55005 14.55L13.95 7.74995ZM2.45005 16.05L13.85 22.85V23.85L5.95005 19.15V20.55L13.95 25.35V26.45L5.95005 21.75V23.15L13.95 27.95L22.05 23.05V17.85L25.45 15.85V25.85L13.95 32.75L2.45005 25.95V16.05Z" fill="black"/>
</g>
<defs>
<clipPath id="clip0_68522_1035">
<rect width="28" height="35" fill="white" transform="translate(0 0.5)"/>
</clipPath>
</defs>
</svg>

<svg id="toggle" width="23" height="22" viewBox="0 0 23 22" fill="none">
<path d="M22.9 0H0V4H22.9V0Z" fill="#81B3D2"/>
<path d="M22.9 9H0V13H22.9V9Z" fill="#81B3D2"/>
<path d="M22.9 18H0V22H22.9V18Z" fill="#81B3D2"/>
</svg>

<svg id="opened" width="23" height="23" viewBox="0 0 23 23" fill="none">
<path d="M22.2 2.8L19.4 0L11.1 8.3L2.8 0L0 2.8L8.3 11.1L0 19.4L2.8 22.2L11.1 13.9L19.4 22.2L22.2 19.4L13.9 11.1L22.2 2.8Z" fill="white"/>
</svg>

<svg id="like" width="23" height="21" viewBox="0 0 23 21" fill="none" xmlns="http://www.w3.org/2000/svg">
<path opacity="0.3" d="M12.9636 3.78L12.3364 6.825L11.7091 9.45H14.3227H20.8045V11.55C20.8045 11.55 20.8045 11.55 20.8045 11.655L17.7727 18.9H8.36364V8.4L12.9636 3.78ZM2.09091 10.5V18.9V10.5ZM13.8 0L6.9 6.93C6.48182 7.245 6.27273 7.77 6.27273 8.4V18.9C6.27273 20.055 7.21364 21 8.36364 21H17.7727C18.6091 21 19.3409 20.475 19.6545 19.74L22.7909 12.285C22.8955 12.075 22.8955 11.76 22.8955 11.55V9.45H23C23 8.295 22.0591 7.35 20.9091 7.35H14.3227L15.3682 2.52V2.205C15.3682 1.785 15.1591 1.365 14.95 1.05L13.8 0ZM4.18182 8.4H0V21H4.18182V8.4Z" fill="black"/>
</svg>

</svg>
